<svg xmlns="http://www.w3.org/2000/svg" viewBox="0 0 1024 187.4">
  <defs>
    <style>
      .st0 { fill: #eda01b; }
      .st1 { fill: #dfecdd; }
    </style>
  </defs>
  <g>
    <path class="st0" d="M0,187.1v-18.7l18.7-56.1h56.1l18.7,56.1,18.7-56.1h56.1l18.7,56.1v18.7H0Z"/>
    <path class="st0" d="M0,75h37.4l18.7-56.1,18.7,56.1h37.4l18.7-56.1,18.7,56.1h37.4V.2H0v74.8Z"/>
  </g>
  <g>
    <path class="st1" d="M292.7,187.2l-35.6-159.3h-1.3c1.7,12.2,2.5,23.6,2.5,33.8v125.5h-32.3V.2h53.5l31.9,146.9h1L344.2.2h54.1v187h-32.9V60.5c0-10.5.7-21.2,1.8-32.3h-1l-35.4,158.9h-38.1Z"/>
    <path class="st1" d="M476.5,74L501.4.3h36.4l-44.3,112v74.9h-34.3v-73.5L415,.2h36.8l24.7,73.9Z"/>
    <path class="st1" d="M589.2,114.3v72.7h-34.8V.2h45.5c19.2,0,33.4,4.5,42.6,13.7s13.7,23.1,13.7,41.8-8,40.1-23.9,49.5l35.9,81.9h-37.3l-29.6-72.7s-12.2,0-12.2,0ZM589.2,84.4h9c8.2,0,14-2.3,17.7-7,3.5-4.7,5.3-11.5,5.3-20.7s-1.8-16.4-5.7-20.4-9.7-6-17.5-6h-8.7l-.2,54.1h0Z"/>
    <path class="st1" d="M720,114.3v72.7h-34.8V.2h45.5c19.2,0,33.4,4.5,42.6,13.7s13.7,23.1,13.7,41.8-8,40.1-23.9,49.5l35.9,81.9h-37.3l-29.6-72.7s-12.2,0-12.2,0ZM720,84.4h9c8.2,0,14-2.3,17.7-7,3.5-4.7,5.3-11.5,5.3-20.7s-1.8-16.4-5.7-20.4-9.7-6-17.5-6h-8.7l-.2,54.1h0Z"/>
    <path class="st1" d="M861.2,74L886.1.3h36.4l-44.3,112v74.9h-34.3v-73.5L799.7.2h36.8l24.7,73.9Z"/>
    <path class="st1" d="M1024,134.5c0,17-4.3,30.1-13.2,39.1-8.9,9-21.6,13.5-38.1,13.5s-30.1-3.2-41.6-9.4v-33.4c14,8.9,26.7,13.4,38.4,13.4s11.7-1.8,15-5.3c3.3-3.5,5-8.4,5-14.5s-2-11.5-6-16.5-10.7-10.5-19.9-16.7c-8-5.3-14-10.5-18.2-15.5s-7.4-10.5-9.5-16.5c-2.3-6.2-3.3-13.2-3.3-21.4,0-15.5,4.5-27.9,13.4-37.1S966.8.3,981.9.3s28.1,3.8,41.3,11.7l-11.5,27.1c-4-2.3-8.4-4.3-12.9-6.2s-9.2-2.7-14.4-2.7-10,1.8-13,5.3c-3,3.7-4.5,8.5-4.5,14.7s1.8,11.5,5.5,16c3.7,4.5,10,9.7,19.1,15.5,12.2,8,20.7,16,25.6,24.4,4.7,8.2,7,17.5,7,28.2h0Z"/>
  </g>
</svg>
